<svg width="13" height="13" viewBox="0 0 13 13" fill="none" xmlns="http://www.w3.org/2000/svg">
<path d="M2.56152 3.56288V12.5908H0.150171V3.56288H2.56152ZM-1.60467e-05 1.20994C-1.60467e-05 0.859507 0.122359 0.570257 0.367109 0.342194C0.611859 0.114132 0.940047 0.000100641 1.35167 0.000100641C1.75773 0.000100641 2.08314 0.114132 2.32789 0.342194C2.5782 0.570257 2.70336 0.859507 2.70336 1.20994C2.70336 1.56038 2.5782 1.84963 2.32789 2.07769C2.08314 2.30576 1.75773 2.41979 1.35167 2.41979C0.940047 2.41979 0.611859 2.30576 0.367109 2.07769C0.122359 1.84963 -1.60467e-05 1.56038 -1.60467e-05 1.20994ZM7.24203 5.49029V12.5908H4.83903V3.56288H7.09184L7.24203 5.49029ZM6.89159 7.75979H6.24078C6.24078 7.09229 6.32699 6.49154 6.49943 5.95754C6.67187 5.41798 6.91384 4.95907 7.22534 4.58082C7.53684 4.19701 7.90674 3.90498 8.33506 3.70473C8.76893 3.49891 9.25287 3.39601 9.78687 3.39601C10.2096 3.39601 10.5962 3.45719 10.9467 3.57957C11.2971 3.70194 11.5975 3.89663 11.8478 4.16363C12.1037 4.43063 12.2983 4.78385 12.4318 5.22329C12.5709 5.66273 12.6404 6.19951 12.6404 6.83363V12.5908H10.2207V6.82529C10.2207 6.42479 10.1651 6.11329 10.0539 5.89079C9.94262 5.66829 9.77853 5.51254 9.56159 5.42354C9.35021 5.32898 9.08878 5.28169 8.77728 5.28169C8.45465 5.28169 8.17374 5.34566 7.93456 5.4736C7.70093 5.60154 7.50624 5.77954 7.35049 6.0076C7.20031 6.2301 7.08628 6.49154 7.0084 6.79191C6.93053 7.09229 6.89159 7.41491 6.89159 7.75979Z" fill="#2A2F2F"/>
</svg>
